<svg xmlns="http://www.w3.org/2000/svg" width="226.77" height="155.91" viewBox="0 0 226.77 155.91"><path d="M155.271 124.723c2.255 0 4.07-1.815 4.07-4.07v-14.631c0-2.256-1.815-4.07-4.07-4.07s-4.07 1.814-4.07 4.07v3.245h-40.648c.138-.248.248-.522.248-.825 0-1.705-.138-3.438-.413-5.115-.138-.88-.962-1.513-1.87-1.348-.88.138-1.485.962-1.348 1.87.248 1.513.357 3.053.357 4.593 0 .303.11.577.248.825h-24.918v-29.483c1.402.22 2.805.522 4.152.935.165.056.33.083.468.083.688 0 1.348-.44 1.567-1.155.275-.853-.22-1.76-1.072-2.035-1.65-.495-3.328-.88-5.006-1.1h-.082v-37.184h3.245c2.255 0 4.07-1.815 4.07-4.07s-1.815-4.07-4.07-4.07h-14.63c-2.256 0-4.07 1.815-4.07 4.07s1.814 4.07 4.07 4.07h3.245v74.036c0 2.255 1.815 4.07 4.07 4.07h72.413v3.218c-.027 2.255 1.789 4.071 4.044 4.071zm-64.686-44.499c-.385.798-.055 1.788.743 2.173 1.375.688 2.695 1.458 3.96 2.365.275.192.605.303.936.303.522 0 1.018-.247 1.319-.688.523-.742.358-1.76-.385-2.283-1.402-.989-2.888-1.87-4.4-2.612-.825-.385-1.787-.055-2.173.742zm13.889 9.048c-1.018-1.375-2.145-2.668-3.383-3.878-.632-.633-1.677-.605-2.31.027s-.605 1.678.027 2.311c1.1 1.072 2.117 2.255 3.025 3.492.33.44.825.66 1.32.66.33 0 .688-.109.962-.33.744-.549.881-1.567.359-2.282zm1.623 10.093c.22.688.853 1.128 1.54 1.128.165 0 .33-.027.495-.082.853-.275 1.32-1.211 1.045-2.063-.522-1.622-1.21-3.218-1.98-4.73-.412-.797-1.402-1.1-2.2-.688-.797.413-1.1 1.403-.688 2.2.687 1.348 1.293 2.778 1.788 4.235zm7.012-14.631c-.412-.247-.715-.688-.715-1.237 0-.771.633-1.375 1.431-1.375.302 0 .55.109.77.247.715.413 1.32.605 2.173.605 1.678 0 2.585-1.266 2.777-3.108-.66.578-1.595.936-2.777.936-2.971 0-4.868-1.65-4.868-4.4v-.027c0-2.751 2.118-4.786 5.198-4.786 1.843 0 2.915.44 3.933 1.485.963.963 1.623 2.448 1.623 5.144v.027c.027 4.455-2.035 7.48-5.94 7.48-1.514 0-2.587-.358-3.605-.991zm6.519-8.443v-.027c0-1.21-.908-2.09-2.393-2.09-1.485 0-2.311.853-2.311 2.062v.027c0 1.21.907 2.062 2.393 2.062s2.311-.851 2.311-2.034zm5.17 2.393v-.027c0-3.96 2.448-7.068 6.078-7.068 3.603 0 6.051 3.054 6.051 7.014v.027c0 3.96-2.448 7.068-6.078 7.068-3.63.027-6.051-3.053-6.051-7.014zm9.076 0v-.027c0-2.475-1.21-4.345-2.998-4.345-1.787 0-2.97 1.814-2.97 4.317v.027c0 2.503 1.183 4.346 2.997 4.346 1.816 0 2.971-1.843 2.971-4.318zm4.923-3.933v-.027c0-1.65 1.32-2.998 3.025-2.998s2.997 1.32 2.997 2.971v.027c0 1.65-1.319 2.998-3.024 2.998-1.733 0-2.998-1.321-2.998-2.971zm.082 4.676c0-.357.303-.633.633-.633h4.565c.357 0 .633.303.633.633 0 .357-.303.632-.633.632h-4.565c-.33.028-.633-.275-.633-.632zm4.346-4.676v-.027c0-.853-.577-1.595-1.43-1.595s-1.376.715-1.376 1.567v.027c0 .853.578 1.595 1.431 1.595s1.375-.742 1.375-1.567z"/></svg>