<svg xmlns="http://www.w3.org/2000/svg" viewBox="0 0 1000 1000" enable-background="new 0 0 1000 1000"><path opacity=".25" enable-background="new" d="M89.2 93.8v854.2h861.6v-854.2h-861.6zm790.6 783.3h-719.6v-712.3h719.6v712.3zm-563.8-290.2c2.3 8.2 3.6 26.2 3.6 53.7 0 23.6 1.2 41 3.8 52 2.5 11 7.5 20.2 15 27.7 7.4 7.4 16.5 12.8 27.3 16.1 10.8 3.2 26.3 4.8 46.5 4.8h11.9v-53.8c-16.1 0-26.6-1-31.4-3.1-4.8-2-8.4-4.9-10.8-8.9-2.3-3.9-3.5-10.7-3.5-20.6 0-6.9-.6-22.8-1.8-47.7-.9-16.3-2.9-29.3-5.9-39-3-9.8-7.3-18-12.9-24.9-5.6-6.8-12.8-12.7-21.6-17.8 10-6.5 17.4-12.6 22.3-18.7 4.9-6 8.9-13.5 12-22.7s5.1-21.2 5.8-36c1.3-26.2 2.1-44.1 2.1-53.5 0-9.2 1.1-15.8 3.4-19.6 2.3-3.8 5.7-6.7 10.4-8.6 4.7-1.8 15.4-2.8 32-2.8v-53.6h-11.9c-19.6 0-34 1.4-43.1 4.1-13.5 4-23.7 9.5-30.8 16.4-7 7-11.9 16.2-14.6 27.6s-4 31.6-4 60.5c0 17.9-.7 30.3-1.9 37.5-1.5 9.6-4.3 17.5-8.3 23.9-4.1 6.4-8.8 10.8-14.4 13.6-5.5 2.7-13.7 4.3-24.6 5v53.9c13.8.7 24 3.6 30.7 8.9 6.5 5.1 11.5 13.6 14.7 25.6zm158.3 104.9l12.2 26c13.5-4.8 24.6-11.4 33.4-19.8 8.8-8.4 14.7-17.8 17.8-28.4 3.2-10.6 4.7-25.1 4.7-43.2v-45h-63.1v63h30.4c-.2 12.5-3.1 22.4-8.5 29.9-5.2 7.5-14.3 13.3-26.9 17.5zm5.1-285.8h63.1v63.1h-63.1v-63.1zm174.8 331.1c13.5-4.1 24-9.5 31.1-16.5 7-6.9 11.9-16.2 14.4-27.7 2.5-11.6 4-31.8 4-60.8 0-17.7.6-30.1 1.8-37.3 1.6-9.6 4.4-17.5 8.4-23.9 4-6.3 8.7-10.9 14.2-13.5 5.5-2.7 13.7-4.3 24.6-4.9h-.1v-53.8c-13.8-.8-24-3.8-30.7-8.9s-11.6-13.7-15-25.6c-2.3-8.4-3.4-26.2-3.4-53.6 0-23.7-1.3-40.9-3.9-51.8-2.6-11.1-7.6-20.3-14.9-27.9-7.4-7.5-16.4-12.8-27.2-16-10.8-3.1-26.4-4.7-46.5-4.7h-11.9v53.5c16.9 0 27.8 1 32.7 3.1 4.9 2 8.3 4.9 10.1 8.6 1.9 3.7 2.8 11.2 3 22.4.8 35.6 2.1 58.6 3.7 69.1 2.5 15.2 7.4 27.8 14.3 37.6 5.1 6.9 13.2 13.9 24.2 21.1-8.5 4.9-15.5 10.6-21 17.2-5.5 6.5-9.9 14.5-13.1 23.8-3.3 9.4-5.4 21.9-6.1 37.4-1.2 25.8-2 43.2-2 52.3-.2 9.2-1.3 15.6-3.6 19.5-2.4 3.8-6 6.7-10.9 8.8-4.9 2-15.4 3-31.5 3v53.8h12c19.7-.3 34.1-1.7 43.3-4.3z"/><path fill="#fff" d="M69.2 72.8v854.2h861.6v-854.2h-861.6zm790.6 783.3h-719.6v-712.3h719.6v712.3zm-563.8-290.2c2.3 8.2 3.6 26.2 3.6 53.7 0 23.6 1.2 41 3.8 52 2.5 11 7.5 20.2 15 27.7 7.4 7.4 16.5 12.8 27.3 16.1 10.8 3.2 26.3 4.8 46.5 4.8h11.9v-53.8c-16.1 0-26.6-1-31.4-3.1-4.8-2-8.4-4.9-10.8-8.9-2.3-3.9-3.5-10.7-3.5-20.6 0-6.9-.6-22.8-1.8-47.7-.9-16.3-2.9-29.3-5.9-39-3-9.8-7.3-18-12.9-24.9-5.6-6.8-12.8-12.7-21.6-17.8 10-6.5 17.4-12.6 22.3-18.7 4.9-6 8.9-13.5 12-22.7s5.1-21.2 5.8-36c1.3-26.2 2.1-44.1 2.1-53.5 0-9.2 1.1-15.8 3.4-19.6 2.3-3.8 5.7-6.7 10.4-8.6 4.7-1.8 15.4-2.8 32-2.8v-53.6h-11.9c-19.6 0-34 1.4-43.1 4.1-13.5 4-23.7 9.5-30.8 16.4-7 7-11.9 16.2-14.6 27.6s-4 31.6-4 60.5c0 17.9-.7 30.3-1.9 37.5-1.5 9.6-4.3 17.5-8.3 23.9-4.1 6.4-8.8 10.8-14.4 13.6-5.5 2.7-13.7 4.3-24.6 5v53.9c13.8.7 24 3.6 30.7 8.9 6.5 5.1 11.5 13.6 14.7 25.6zm158.3 104.9l12.2 26c13.5-4.8 24.6-11.4 33.4-19.8s14.7-17.8 17.8-28.4c3.2-10.6 4.7-25.1 4.7-43.2v-45h-63.1v63h30.4c-.2 12.5-3.1 22.4-8.5 29.9-5.2 7.5-14.3 13.3-26.9 17.5zm5.1-285.8h63.1v63.1h-63.1v-63.1zm174.8 331.1c13.5-4.1 24-9.5 31.1-16.5 7-6.9 11.9-16.2 14.4-27.7 2.5-11.6 4-31.8 4-60.8 0-17.7.6-30.1 1.8-37.3 1.6-9.6 4.4-17.5 8.4-23.9 4-6.3 8.7-10.9 14.2-13.5 5.5-2.7 13.7-4.3 24.6-4.9h-.1v-53.8c-13.8-.8-24-3.8-30.7-8.9s-11.6-13.7-15-25.6c-2.3-8.4-3.4-26.2-3.4-53.6 0-23.7-1.3-40.9-3.9-51.8-2.6-11.1-7.6-20.3-14.9-27.9-7.4-7.5-16.4-12.8-27.2-16-10.8-3.1-26.4-4.7-46.5-4.7h-11.9v53.5c16.9 0 27.8 1 32.7 3.1 4.9 2 8.3 4.9 10.1 8.6 1.9 3.7 2.8 11.2 3 22.4.8 35.6 2.1 58.6 3.7 69.1 2.5 15.2 7.4 27.8 14.3 37.6 5.1 6.9 13.2 13.9 24.2 21.1-8.5 4.9-15.5 10.6-21 17.2-5.5 6.5-9.9 14.5-13.1 23.8-3.3 9.4-5.4 21.9-6.1 37.4-1.2 25.8-2 43.2-2 52.3-.2 9.2-1.3 15.6-3.6 19.5-2.4 3.8-6 6.7-10.9 8.8-4.9 2-15.4 3-31.5 3v53.8h12c19.7-.3 34.1-1.7 43.3-4.3z"/></svg>