<svg xmlns="http://www.w3.org/2000/svg" width="22" height="21.812" viewBox="0 0 22 21.812"><path d="M0 0v21.812h22v-21.812h-22zm20.188 20.001h-18.375v-18.188h18.375v18.188zm-14.397-7.41c.06.21.093.668.093 1.371 0 .603.031 1.046.096 1.327.065.28.192.517.382.708.189.19.421.328.696.411.276.082.672.123 1.187.123h.305v-1.375c-.411 0-.678-.026-.802-.078-.123-.052-.215-.126-.276-.227-.06-.099-.09-.274-.09-.525 0-.177-.016-.583-.046-1.218-.023-.417-.073-.749-.15-.997-.076-.25-.186-.46-.33-.635-.143-.174-.327-.325-.552-.455.255-.165.444-.323.569-.477.124-.152.226-.345.306-.58.079-.235.129-.542.149-.92.034-.67.053-1.126.053-1.367 0-.236.029-.404.086-.501.058-.097.146-.17.266-.219.12-.047.393-.071.817-.071v-1.368h-.305c-.501 0-.868.035-1.1.104-.344.103-.606.243-.787.42-.18.178-.304.413-.373.706-.068.291-.101.808-.101 1.546 0 .457-.017.773-.048.957-.038.244-.109.447-.211.61-.104.163-.224.277-.367.347-.14.068-.349.111-.629.127v1.376c.352.018.612.093.783.226.169.131.296.348.379.654zm4.041 2.679l.312.665c.344-.123.629-.292.853-.505s.375-.455.455-.724c.081-.271.121-.64.121-1.104v-1.15h-1.611v1.61h.777c-.006.318-.08.571-.216.764-.137.188-.368.337-.691.444zm.13-7.297h1.611v1.612h-1.611zm4.464 8.453c.346-.104.612-.243.793-.421.18-.177.303-.414.368-.708.065-.295.101-.813.101-1.553 0-.452.016-.769.047-.953.041-.244.113-.447.215-.61.101-.161.221-.278.363-.346.141-.068.349-.11.629-.125h-.002v-1.375c-.353-.02-.612-.096-.785-.228-.17-.131-.297-.35-.383-.654-.058-.214-.086-.67-.086-1.368 0-.604-.033-1.045-.1-1.324-.066-.283-.193-.519-.38-.712-.188-.192-.419-.327-.694-.408-.277-.08-.673-.121-1.188-.121h-.304v1.366c.432 0 .711.026.834.078.125.051.211.124.258.219.048.095.072.286.076.573.021.909.054 1.497.095 1.765.065.388.188.709.366.96.131.177.336.355.619.539-.218.124-.395.271-.535.438-.141.165-.252.369-.334.607-.084.24-.137.559-.155.954-.031.658-.05 1.104-.05 1.336-.004.234-.032.399-.092.497-.061.098-.153.172-.278.224-.126.052-.394.077-.804.077v1.375h.306c.499.001.867-.035 1.1-.102z"/></svg>