<svg xmlns="http://www.w3.org/2000/svg" viewBox="0 415.4 1000 169.2" enable-background="new 0 415.4 1000 169.2"><path opacity=".25" enable-background="new" d="M579.9 526c-5.5 0-9.9-2.6-12.7-5.4v4.7h-4.8v-50.8h4.8v18c2.8-2.8 7.3-5.3 12.7-5.3 11 0 18.2 8.1 18.2 19.3.1 11.3-7.2 19.5-18.2 19.5zm-1.1-34.4c-4.9 0-9.2 2.7-11.6 5.3v19.8c2.3 2.6 6.6 5 11.6 5 8.7 0 14.5-6.2 14.5-15.1 0-8.9-5.7-15-14.5-15zm63.3-3.7l-17.1 40c-3 7.3-6.3 11.6-13.6 11.6-3.7 0-6.7-1.4-8.5-2.6l.9-4.1c1.9 1.2 4.3 2.5 7.7 2.5 4.7 0 6.7-2.7 8.7-7.4l1.2-2.9-18-37.1h5.4l15 32 13.4-32h4.9zm41.1-.6c5.4 0 9.9 2.5 12.7 5.3v-18h4.8v50.8h-4.8v-4.7c-2.8 2.9-7.2 5.4-12.7 5.4-11 0-18.3-8.2-18.3-19.4 0-11.4 7.3-19.4 18.3-19.4zm1.1 34.3c4.9 0 9.3-2.6 11.6-5v-19.6c-2.4-2.7-6.6-5.3-11.6-5.3-8.7 0-14.5 6.2-14.5 15 .1 8.7 5.9 14.9 14.5 14.9zm47.7-34.7c5.6 0 10.4 1.9 13.9 5l-2.6 3.6c-2.7-2.6-6.4-4.3-11.2-4.3-9 0-15.1 6.4-15.1 15.2s6.1 15.3 15.1 15.3c4.8 0 8.5-1.7 11.2-4.3l2.6 3.6c-3.5 3.1-8.3 5-13.9 5-11.7 0-19.9-8.5-19.9-19.8.2-10.9 8.2-19.3 19.9-19.3zm27.7 31.3c2.6 0 3.9 1.4 3.9 4.1s-1.4 4.1-3.9 4.1c-2.6 0-3.9-1.3-3.9-4.1.1-2.8 1.4-4.1 3.9-4.1zm17.1-28.4c3.5-1.6 8.5-2.6 13-2.6 9.8 0 14.4 5.5 14.4 13.7v24.4h-4.8v-4.5c-2.7 2.6-6.7 5.3-12.9 5.3-8.2 0-13.3-4.4-13.3-11.4 0-9.1 7.8-13.3 18.2-13.3 2.9 0 5.6.4 7.9.9v-1.1c0-6.4-3.2-9.7-9.8-9.7-4.3 0-8.3.9-11.7 2.6l-1-4.3zm10.8 32.2c5.6 0 9.3-2.7 11.6-4.8v-11.2c-1.6-.5-4.4-.9-6.9-.9-8.1 0-14.2 2.7-14.2 9.1 0 4.9 3.7 7.8 9.5 7.8zm30.3-34.1h4.8v8c2.3-5 6-8.5 11.5-8.5 3.5 0 5.7 1.1 8 2.8l-2 4.1c-1.7-1.3-4.1-2.4-6.5-2.4-5.4 0-9 4.3-10.8 9.6v23.9h-4.9l-.1-37.5zm48.7-1c11.7 0 20 8.4 20 19.9 0 11.2-8.2 19.5-20 19.5-11.6 0-19.9-8.3-19.9-19.5.1-11.5 8.4-19.9 19.9-19.9zm0 34.8c9.1 0 15.3-6.5 15.3-15.1 0-8.7-6.2-15.3-15.3-15.3-8.9 0-15.1 6.6-15.1 15.3 0 8.7 6.3 15.1 15.1 15.1zm48.8-34.8c5.6 0 10.4 1.9 13.9 5l-2.6 3.6c-2.7-2.6-6.4-4.3-11.2-4.3-9 0-15.1 6.4-15.1 15.2s6.1 15.3 15.1 15.3c4.8 0 8.5-1.7 11.2-4.3l2.6 3.6c-3.5 3.1-8.3 5-13.9 5-11.7 0-19.9-8.5-19.9-19.8 0-10.9 8.2-19.3 19.9-19.3zm55.1 1.8l-20.1 16.8 21.3 19.1v.8h-6.1l-20.5-18.7v18.7h-4.8v-50.8h4.8v29.8l19.5-16.5h5.6l.3.8z"/><path fill="#fff" d="M579.9 524.1c-5.5 0-9.9-2.6-12.7-5.4v4.7h-4.8v-50.9h4.8v18c2.8-2.8 7.3-5.3 12.7-5.3 11 0 18.2 8.1 18.2 19.3.1 11.4-7.2 19.6-18.2 19.6zm-1.1-34.5c-4.9 0-9.2 2.7-11.6 5.3v19.8c2.3 2.6 6.6 5 11.6 5 8.7 0 14.5-6.2 14.5-15.1s-5.7-15-14.5-15zm63.3-3.6l-17.1 40c-3 7.3-6.3 11.6-13.6 11.6-3.7 0-6.7-1.4-8.5-2.6l.9-4.1c1.9 1.2 4.3 2.5 7.7 2.5 4.7 0 6.7-2.7 8.7-7.4l1.2-2.9-18-37.1h5.4l15 32 13.4-32h4.9zm41.1-.6c5.4 0 9.9 2.5 12.7 5.3v-18h4.8v50.8h-4.8v-4.7c-2.8 2.9-7.2 5.4-12.7 5.4-11 0-18.3-8.2-18.3-19.4 0-11.5 7.3-19.4 18.3-19.4zm1.1 34.3c4.9 0 9.3-2.6 11.6-5v-19.6c-2.4-2.7-6.6-5.3-11.6-5.3-8.7 0-14.5 6.2-14.5 15 .1 8.7 5.9 14.9 14.5 14.9zm47.7-34.7c5.6 0 10.4 1.9 13.9 5l-2.6 3.6c-2.7-2.6-6.4-4.3-11.2-4.3-9 0-15.1 6.4-15.1 15.2s6.1 15.3 15.1 15.3c4.8 0 8.5-1.7 11.2-4.3l2.6 3.6c-3.5 3.1-8.3 5-13.9 5-11.7 0-19.9-8.5-19.9-19.8.2-10.9 8.2-19.3 19.9-19.3zm27.7 31.1c2.6 0 3.9 1.4 3.9 4.1s-1.4 4.1-3.9 4.1c-2.6 0-3.9-1.3-3.9-4.1.1-2.6 1.4-4.1 3.9-4.1zm17.1-28.2c3.5-1.6 8.5-2.6 13-2.6 9.8 0 14.4 5.5 14.4 13.7v24.3h-4.8v-4.5c-2.7 2.6-6.7 5.3-12.9 5.3-8.2 0-13.3-4.4-13.3-11.4 0-9.1 7.8-13.3 18.2-13.3 2.9 0 5.6.4 7.9.9v-1.1c0-6.4-3.2-9.7-9.8-9.7-4.3 0-8.3.9-11.7 2.6l-1-4.2zm10.8 32.2c5.6 0 9.3-2.7 11.6-4.8v-11.2c-1.6-.5-4.4-.9-6.9-.9-8.1 0-14.2 2.7-14.2 9.1 0 4.9 3.7 7.8 9.5 7.8zm30.3-34.1h4.8v8c2.3-5 6-8.5 11.5-8.5 3.5 0 5.7 1.1 8 2.8l-2 4.1c-1.7-1.3-4.1-2.4-6.5-2.4-5.4 0-9 4.3-10.8 9.6v23.9h-4.9l-.1-37.5zm48.7-1c11.7 0 20 8.4 20 19.9 0 11.2-8.2 19.5-20 19.5-11.6 0-19.9-8.3-19.9-19.5.1-11.5 8.4-19.9 19.9-19.9zm0 34.8c9.1 0 15.3-6.5 15.3-15.1 0-8.7-6.2-15.3-15.3-15.3-8.9 0-15.1 6.6-15.1 15.3 0 8.6 6.3 15.1 15.1 15.1zm48.8-34.8c5.6 0 10.4 1.9 13.9 5l-2.6 3.6c-2.7-2.6-6.4-4.3-11.2-4.3-9 0-15.1 6.4-15.1 15.2s6.1 15.3 15.1 15.3c4.8 0 8.5-1.7 11.2-4.3l2.6 3.6c-3.5 3.1-8.3 5-13.9 5-11.7 0-19.9-8.5-19.9-19.8 0-10.9 8.2-19.3 19.9-19.3zm55.1 1.7l-20.1 16.8 21.3 19.1v.8h-6.1l-20.5-18.7v18.7h-4.8v-50.8h4.8v29.8l19.5-16.5h5.6l.3.8z"/><path opacity=".25" enable-background="new" d="M74 488.7v7.1c2.7-4.6 7.2-7.7 13.7-7.7 7.4 0 11.4 3.4 13.2 8.7 2.4-4.8 7.3-8.7 14.5-8.7 10.1 0 14.3 7.1 14.3 16.4v21.3h-4.8v-20.8c0-7.2-3.1-12.5-10.8-12.5-6.8 0-10.8 4.5-12.1 9.5v23.7h-5v-20.7c0-7.3-3.1-12.5-10.8-12.5-6.9 0-10.9 4.4-12.3 9.5v23.7h-4.8v-37.1l4.9.1zm69.7 1.9c3.4-1.5 8.5-2.5 12.9-2.5 9.7 0 14.2 5.5 14.2 13.6v24.1h-4.8v-4.5c-2.7 2.5-6.7 5.2-12.8 5.2-8.1 0-13.1-4.4-13.1-11.2 0-9.1 7.7-13.1 18.1-13.1 2.9 0 5.6.4 7.8.9v-1.1c0-6.3-3.3-9.6-9.7-9.6-4.2 0-8.3.9-11.6 2.5l-1-4.3zm10.7 31.9c5.5 0 9.2-2.7 11.5-4.8v-11.1c-1.6-.4-4.3-.8-6.9-.8-8 0-14.2 2.7-14.2 9 0 5 3.8 7.7 9.6 7.7zm45.6-34.5c5.4 0 9.8 2.4 12.6 5.3v-17.8h4.8v50.4h-4.8v-4.7c-2.8 2.9-7.2 5.4-12.6 5.4-10.9 0-18.2-8.1-18.2-19.3 0-11.2 7.2-19.3 18.2-19.3zm1.1 34.2c4.9 0 9.2-2.5 11.5-5v-19.5c-2.3-2.7-6.6-5.3-11.5-5.3-8.7 0-14.3 6.1-14.3 14.9 0 8.7 5.6 14.9 14.3 14.9zm62.8-.4c-3.9 3-8.9 5-15.2 5-13.9 0-19.9-8.8-19.9-19.4 0-10.8 7.4-19.7 19.4-19.7 11.2 0 16.3 7 16.3 15.5 0 2.1-.3 4.5-.7 5.9h-30.2c.5 7.7 5.1 13.7 15.2 13.7 5.5 0 9.8-2.1 13-4.6l2.1 3.6zm-4-19.3c0-5.6-3.5-10.7-11.8-10.7-8.7 0-13.8 6.1-14.3 13.2h25.8c.1-.6.3-1.6.3-2.5zm92.5-13.8l-14.6 37.1h-6l-12.2-32.4-12.3 32.4h-6l-14.3-37.1h5.2l12.3 32.7 12.4-32.7h5.6l12.1 32.7 12.5-32.7h5.3zm12.1-13.5c1.8 0 3.1.8 3.1 3s-1.3 3-3.1 3c-2 0-3.3-.8-3.3-3 .1-2.3 1.3-3 3.3-3zm-2.4 13.5h4.8v37.1h-4.8v-37.1zm26.8-9.3v9.4h15.4v4h-15.5v21.7c0 5.2 2.4 7.8 6.9 7.8 2.9 0 6.6-1.3 8.8-2.9l1.7 3.9c-3 2-7.2 3.4-11.8 3.4-6.6 0-10.4-4-10.4-11.2v-22.6h-7.4v-4.1h7.4l.5-9.4h4.4zm31-3.9v20.1c2.7-4.7 7.6-7.5 14.2-7.5 10.1 0 14.9 7.1 14.9 16.4v21.3h-5v-20.7c0-7.2-3.5-12.5-11.4-12.5-6.8 0-11.4 4.2-12.8 9.4v23.9h-4.8v-50.4h4.9z"/><path fill="#fff" d="M72.1 486.7v7.1c2.7-4.6 7.2-7.7 13.7-7.7 7.4 0 11.4 3.4 13.2 8.7 2.4-4.8 7.3-8.7 14.5-8.7 10.1 0 14.3 7.1 14.3 16.4v21.3h-4.8v-20.7c0-7.2-3.1-12.5-10.8-12.5-6.8 0-10.8 4.5-12.1 9.5v23.8h-4.8v-20.7c0-7.3-3.1-12.5-10.8-12.5-6.9 0-10.9 4.4-12.3 9.5v23.7h-4.8v-37.1l4.7-.1zm69.6 2c3.4-1.5 8.5-2.5 12.9-2.5 9.7 0 14.2 5.5 14.2 13.6v24.1h-4.8v-4.5c-2.7 2.5-6.7 5.2-12.8 5.2-8.1 0-13.1-4.4-13.1-11.2 0-9.1 7.7-13.1 18.1-13.1 2.9 0 5.6.4 7.8.9v-1.2c0-6.3-3.3-9.6-9.7-9.6-4.2 0-8.3.9-11.6 2.5l-1-4.2zm10.8 31.9c5.5 0 9.2-2.7 11.5-4.8v-11.1c-1.6-.4-4.3-.8-6.9-.8-8 0-14.2 2.7-14.2 9 0 5 3.8 7.7 9.6 7.7zm45.5-34.5c5.4 0 9.8 2.4 12.6 5.3v-17.8h4.8v50.4h-4.8v-4.7c-2.8 2.9-7.2 5.4-12.6 5.4-10.9 0-18.2-8.1-18.2-19.3.1-11.2 7.3-19.3 18.2-19.3zm1.1 34.1c4.9 0 9.2-2.5 11.5-5v-19.5c-2.3-2.7-6.6-5.3-11.5-5.3-8.7 0-14.3 6.1-14.3 14.9s5.7 14.9 14.3 14.9zm62.9-.4c-3.9 3-8.9 5-15.2 5-13.9 0-19.9-8.8-19.9-19.4 0-10.8 7.4-19.7 19.4-19.7 11.2 0 16.3 7 16.3 15.5 0 2.1-.3 4.5-.7 5.9h-30.2c.5 7.7 5.1 13.7 15.2 13.7 5.5 0 9.8-2.1 13-4.6l2.1 3.6zm-4.1-19.2c0-5.6-3.5-10.7-11.8-10.7-8.7 0-13.8 6.1-14.3 13.2h25.8c.2-.7.3-1.6.3-2.5zm92.6-13.9l-14.6 37.1h-6l-12.3-32.4-12.3 32.4h-6l-14.3-37.1h5.2l12.3 32.7 12.4-32.7h5.7l12.1 32.7 12.5-32.7h5.3zm12.1-13.5c1.8 0 3.1.8 3.1 3s-1.3 3-3.1 3c-2 0-3.3-.8-3.3-3 0-2.3 1.3-3 3.3-3zm-2.5 13.5h4.8v37.1h-4.8v-37.1zm26.9-9.3v9.4h15.4v4h-15.5v21.7c0 5.2 2.4 7.8 6.9 7.8 2.9 0 6.6-1.3 8.8-2.9l1.7 3.9c-3 2-7.2 3.4-11.8 3.4-6.6 0-10.4-4-10.4-11.2v-22.6h-7.4v-4.1h7.5l.5-9.4h4.3zm31-3.8v20.1c2.7-4.7 7.6-7.5 14.2-7.5 10.1 0 14.9 7.1 14.9 16.4v21.4h-4.9v-20.7c0-7.2-3.5-12.5-11.4-12.5-6.8 0-11.4 4.2-12.8 9.4v23.9h-4.8v-50.4h4.8v-.1z"/><path opacity=".26" enable-background="new" d="M536.7 492.2c0 4.9-2.1 9.2-5.4 12.2h.1l-18 18c-1.8 1.8-3.6 3.6-5.4 3.6-1.8 0-3.6-1.8-5.4-3.6l-18-18h.1c-3.4-3-5.4-7.4-5.4-12.2 0-9.1 7.4-16.5 16.5-16.5 4.9 0 9.2 2.1 12.2 5.4 3-3.4 7.4-5.4 12.2-5.4 9.1 0 16.5 7.4 16.5 16.5z"/><path fill="#FF2329" d="M535.2 490.5c0 4.9-2.1 9.2-5.4 12.2h.1l-18 18c-1.8 1.8-3.6 3.6-5.4 3.6s-3.6-1.8-5.4-3.6l-17.9-18h.1c-3.4-3-5.4-7.4-5.4-12.2 0-9.1 7.4-16.5 16.5-16.5 4.9 0 9.2 2.1 12.2 5.4 3-3.4 7.4-5.4 12.2-5.4 9.1 0 16.4 7.4 16.4 16.5z"/></svg>