<svg xmlns="http://www.w3.org/2000/svg" width="216" height="146" viewBox="0 0 216 146"><path d="M101.973 77.073c2.498-5.92 4.616-10.564 6.354-13.932 1.304-2.498 2.526-4.603 3.667-6.314 1.14-1.711 2.525-3.381 4.154-5.01 1.631-1.63 3.504-2.853 5.623-3.667 2.117-.815 4.48-1.222 7.088-1.222h20.856v15.643c0 .706.257 1.317.773 1.833s1.127.774 1.833.774c.761 0 1.386-.244 1.873-.733l26.072-26.071c.49-.489.734-1.113.734-1.874s-.244-1.385-.734-1.876l-25.99-25.99c-.651-.543-1.305-.813-1.955-.813-.762 0-1.385.244-1.875.733-.487.489-.731 1.113-.731 1.874v15.642h-20.856c-3.694 0-7.17.449-10.43 1.345-3.259.896-6.152 2.036-8.677 3.422-2.526 1.385-4.97 3.245-7.333 5.581-2.363 2.335-4.373 4.59-6.029 6.762-1.656 2.172-3.395 4.888-5.214 8.147-1.819 3.259-3.286 6.111-4.399 8.555-1.114 2.444-2.458 5.459-4.033 9.044-2.499 5.92-4.617 10.565-6.355 13.932-1.303 2.498-2.526 4.604-3.666 6.314-1.14 1.711-2.526 3.381-4.155 5.01-1.63 1.631-3.504 2.853-5.622 3.668-2.118.814-4.481 1.222-7.088 1.222h-18.25c-.761 0-1.386.243-1.874.733-.488.488-.733 1.112-.733 1.873v15.644c0 .761.246 1.386.735 1.875.489.489 1.114.733 1.874.733h18.25c3.694 0 7.17-.449 10.429-1.346 3.259-.896 6.152-2.036 8.677-3.422 2.526-1.385 4.97-3.245 7.333-5.581 2.362-2.335 4.373-4.59 6.029-6.762 1.656-2.173 3.394-4.888 5.214-8.147 1.819-3.259 3.286-6.111 4.399-8.555s2.457-5.459 4.032-9.044zm-64.366-30.146h18.25c2.39 0 4.603.394 6.64 1.182s3.748 1.738 5.133 2.852c1.385 1.114 2.77 2.648 4.155 4.603 1.385 1.956 2.485 3.681 3.3 5.174.814 1.494 1.819 3.463 3.014 5.907 4.183-9.831 7.903-17.245 11.162-22.242-8.69-12.221-19.825-18.332-33.404-18.332h-18.25c-.761 0-1.386.244-1.874.733-.488.489-.733 1.113-.733 1.874v15.643c0 .761.244 1.384.733 1.873.489.489 1.114.733 1.874.733zm116.67 34.71c-.652-.543-1.305-.813-1.957-.813-.76 0-1.385.244-1.873.733-.488.488-.732 1.113-.732 1.873v15.644h-20.857c-2.391 0-4.604-.394-6.641-1.183-2.037-.787-3.748-1.737-5.133-2.852-1.384-1.113-2.77-2.648-4.154-4.604-1.386-1.955-2.486-3.68-3.301-5.174-.814-1.492-1.819-3.463-3.014-5.906-4.182 9.777-7.875 17.19-11.08 22.242 1.466 2.119 2.987 4.006 4.562 5.662 1.575 1.656 3.069 3.109 4.481 4.358s3.015 2.336 4.807 3.259c1.793.924 3.367 1.697 4.727 2.322s3.07 1.127 5.133 1.507c2.064.38 3.802.666 5.214.854 1.412.19 3.341.326 5.785.408s4.426.108 5.946.082c1.522-.027 3.722-.056 6.601-.082s5.188-.041 6.926-.041v15.644c0 .706.257 1.317.773 1.833s1.127.773 1.833.773c.761 0 1.386-.244 1.873-.732l26.072-26.071c.488-.489.732-1.113.732-1.874s-.244-1.385-.734-1.873l-25.989-25.989z"/></svg>