<svg xmlns="http://www.w3.org/2000/svg" viewBox="0 0 1000 1000" enable-background="new 0 0 1000 1000"><path opacity=".25" enable-background="new" d="M771 590c0 134.5-109.4 244-244 244s-244-109.5-244-244 109.4-244 244-244l71.9.8-35.5 35.5 86.3 86.3 183.4-183.6-183.4-183-86.3 86.3 36 35.7h-72.4c-202.1 0-366 163.8-366 366s163.9 366 366 366 366-163.8 366-366h-122z"/><path fill="#fff" d="M744 561c0 134.5-109.4 244-244 244s-244-109.5-244-244 109.4-244 244-244l71.9.8-35.5 35.5 86.3 86.3 183.4-183.6-183.4-183-86.3 86.3 36 35.7h-72.4c-202.1 0-366 163.8-366 366s163.9 366 366 366 366-163.8 366-366h-122z"/></svg>